Run_20002
nRows=4
nColumns=164

# SIMM Motion File Header:
name Run_20002
datacolumns 164
datarows 4
otherdata 1
range 4.19000000 4.22000000
endheader
time	pelvis_tilt	pelvis_list	pelvis_rotation	pelvis_tx	pelvis_ty	pelvis_tz	hip_flexion_r	hip_adduction_r	hip_rotation_r	knee_angle_r	ankle_angle_r	hip_flexion_l	hip_adduction_l	hip_rotation_l	knee_angle_l	ankle_angle_l	lumbar_extension	lumbar_bending	lumbar_rotation	arm_flex_r	arm_add_r	arm_rot_r	elbow_flex_r	pro_sup_r	arm_flex_l	arm_add_l	arm_rot_l	elbow_flex_l	pro_sup_l	subtalar_angle_r	mtp_angle_r	subtalar_angle_l	mtp_angle_l	wrist_flex_r	wrist_dev_r	wrist_flex_l	wrist_dev_l	LASI_tx	LASI_ty	LASI_tz	RASI_tx	RASI_ty	RASI_tz	LPSI_tx	LPSI_ty	LPSI_tz	RPSI_tx	RPSI_ty	RPSI_tz	RTH1_tx	RTH1_ty	RTH1_tz	RTH2_tx	RTH2_ty	RTH2_tz	RTH3_tx	RTH3_ty	RTH3_tz	LTH1_tx	LTH1_ty	LTH1_tz	LTH2_tx	LTH2_ty	LTH2_tz	LTH3_tx	LTH3_ty	LTH3_tz	RTB1_tx	RTB1_ty	RTB1_tz	RTB2_tx	RTB2_ty	RTB2_tz	RTB3_tx	RTB3_ty	RTB3_tz	LTB1_tx	LTB1_ty	LTB1_tz	LTB2_tx	LTB2_ty	LTB2_tz	LTB3_tx	LTB3_ty	LTB3_tz	RCAL_tx	RCAL_ty	RCAL_tz	RTOE_tx	RTOE_ty	RTOE_tz	RMT5_tx	RMT5_ty	RMT5_tz	LCAL_tx	LCAL_ty	LCAL_tz	LTOE_tx	LTOE_ty	LTOE_tz	LMT5_tx	LMT5_ty	LMT5_tz	LACR_tx	LACR_ty	LACR_tz	RACR_tx	RACR_ty	RACR_tz	CLAV_tx	CLAV_ty	CLAV_tz	C7_tx	C7_ty	C7_tz	RUA1_tx	RUA1_ty	RUA1_tz	RUA2_tx	RUA2_ty	RUA2_tz	RUA3_tx	RUA3_ty	RUA3_tz	RLEL_tx	RLEL_ty	RLEL_tz	RMEL_tx	RMEL_ty	RMEL_tz	LUA1_tx	LUA1_ty	LUA1_tz	LUA2_tx	LUA2_ty	LUA2_tz	LUA3_tx	LUA3_ty	LUA3_tz	LLEL_tx	LLEL_ty	LLEL_tz	LMEL_tx	LMEL_ty	LMEL_tz	RFAsuperior_tx	RFAsuperior_ty	RFAsuperior_tz	RFAradius_tx	RFAradius_ty	RFAradius_tz	RFAulna_tx	RFAulna_ty	RFAulna_tz	LFAsuperior_tx	LFAsuperior_ty	LFAsuperior_tz	LFAradius_tx	LFAradius_ty	LFAradius_tz	LFAulna_tx	LFAulna_ty	LFAulna_tz
      4.19000000	    -10.49110849	     -2.02034567	     -1.39874023	      0.94675509	      0.97499299	     -0.35802386	     27.14177108	      8.11800094	     -1.57262697	    -41.25003590	     23.13610645	     33.92529281	     -3.58126769	     -0.05977629	    -82.97782447	      5.95801802	     -4.46920207	      5.58221581	      5.15527686	    -17.51901164	    -17.54987844	    -10.75331684	     81.87783232	    111.63222370	    -22.70639563	    -16.06032389	      2.67203030	     88.93407766	    109.92817572	      0.00000000	      0.00000000	      0.00000000	      0.00000000	      0.00000000	      0.00000000	      0.00000000	      0.00000000	      0.96159271	      1.01511669	     -0.48113668	      0.96483177	      1.01831358	     -0.23377893	      0.80507251	      1.07247609	     -0.42143432	      0.80332740	      1.06855185	     -0.30936701	      0.89362447	      0.89724822	     -0.18697553	      0.87076641	      0.74527009	     -0.22126788	      0.94639747	      0.60259314	     -0.23434645	      0.92966167	      0.88594420	     -0.53660933	      0.90137053	      0.72620752	     -0.51090957	      0.99196094	      0.61260780	     -0.51809591	      0.98098933	      0.35484475	     -0.32489614	      0.89266925	      0.33193022	     -0.25627678	      0.87863284	      0.19415832	     -0.34912777	      0.98239005	      0.40933660	     -0.46496141	      0.84292908	      0.42042027	     -0.51283883	      0.78794803	      0.30903052	     -0.46352754	      0.71341986	      0.10062403	     -0.35648916	      0.95539870	      0.07321032	     -0.38465644	      0.90697072	      0.04887465	     -0.28839301	      0.60529023	      0.33462146	     -0.42839348	      0.73275192	      0.13568485	     -0.45283044	      0.66718614	      0.16041646	     -0.54115852	      0.95120687	      1.50622858	     -0.50358240	      0.98595239	      1.46382272	     -0.18250071	      1.03190277	      1.44255825	     -0.31861117	      0.90981695	      1.52011616	     -0.34458669	      0.88043331	      1.36251024	     -0.11873405	      0.92269704	      1.29784430	     -0.09956426	      0.85762057	      1.21721307	     -0.06059667	      0.82394967	      1.15993549	     -0.03643003	      0.82135878	      1.13722585	     -0.12274437	      0.84777661	      1.41209680	     -0.56177506	      0.87613303	      1.33725642	     -0.59540450	      0.80259384	      1.27637986	     -0.62143612	      0.78594767	      1.21163362	     -0.65122140	      0.76424441	      1.18873065	     -0.56574430	      0.90227217	      1.08146967	     -0.03543903	      1.03796533	      0.99834430	     -0.12497060	      1.00352946	      0.96136790	     -0.07802145	      0.83135593	      1.13301997	     -0.64801509	      0.97136626	      1.04693408	     -0.54754282	      0.94735175	      0.99936929	     -0.59350563
      4.20000000	    -10.42731713	     -2.09717203	     -1.35623423	      0.94564919	      0.97663459	     -0.35819585	     25.26019095	      8.19460763	     -1.44936777	    -40.17564005	     23.60989427	     35.43669739	     -3.51915796	      0.47584341	    -82.74537296	      6.73544385	     -4.63238386	      5.60033787	      6.06214010	    -16.02780479	    -17.70793843	    -10.34237520	     83.43593256	    112.47301441	    -23.64352298	    -16.21974450	      2.30037756	     88.10382368	    108.70167926	      0.00000000	      0.00000000	      0.00000000	      0.00000000	      0.00000000	      0.00000000	      0.00000000	      0.00000000	      0.96046790	      1.01673136	     -0.48178086	      0.96379843	      1.01971971	     -0.23422621	      0.80334155	      1.07440761	     -0.42105234	      0.80216289	      1.07012809	     -0.30936978	      0.89062285	      0.89826622	     -0.18712657	      0.86392922	      0.74670700	     -0.22096451	      0.93561654	      0.60220285	     -0.23463488	      0.93043761	      0.88827259	     -0.53678781	      0.90607859	      0.72847273	     -0.51123913	      1.00016304	      0.61719895	     -0.51749741	      0.96461299	      0.35302500	     -0.32514112	      0.87625853	      0.33147952	     -0.25676956	      0.86001604	      0.19385258	     -0.34985351	      0.99593777	      0.41182566	     -0.46499447	      0.85637799	      0.42094914	     -0.51336209	      0.80445617	      0.30783131	     -0.46438919	      0.69351202	      0.10134984	     -0.35642585	      0.93530691	      0.07307305	     -0.38479453	      0.88683686	      0.04890643	     -0.28852178	      0.62008435	      0.32704852	     -0.43064399	      0.75642468	      0.13370151	     -0.45555487	      0.69032319	      0.15641156	     -0.54380820	      0.94930044	      1.50757560	     -0.50357219	      0.98690666	      1.46562288	     -0.18274707	      1.03146540	      1.44410728	     -0.31900561	      0.90901553	      1.52162898	     -0.34402284	      0.88470858	      1.36189288	     -0.11737827	      0.92848743	      1.29836710	     -0.10011932	      0.86677294	      1.21541485	     -0.06066017	      0.83571409	      1.15681086	     -0.03596061	      0.83093162	      1.13433958	     -0.12206478	      0.84342053	      1.41536126	     -0.56017946	      0.86982301	      1.34059065	     -0.59536068	      0.79454471	      1.28140391	     -0.62006061	      0.77577611	      1.21719350	     -0.65057172	      0.75565450	      1.19431672	     -0.56474067	      0.91749223	      1.08170075	     -0.03791202	      1.05453126	      1.00592805	     -0.13251553	      1.02366024	      0.96714799	     -0.08425914	      0.81866057	      1.13686746	     -0.64875521	      0.96032990	      1.04640326	     -0.55332660	      0.93203582	      1.00021599	     -0.59897601
      4.21000000	    -10.51989436	     -2.03950745	     -1.32227231	      0.94500873	      0.97924549	     -0.35841237	     23.28710248	      8.16717147	     -1.18868180	    -38.61873809	     23.79844605	     36.90152961	     -3.28074286	      0.86697213	    -81.97333421	      7.41414046	     -4.54185295	      5.42898214	      7.00557930	    -14.96458463	    -17.78479892	    -10.09006768	     85.66757342	    113.00196201	    -24.86091282	    -16.56119291	      1.99448002	     88.33076023	    107.24936066	      0.00000000	      0.00000000	      0.00000000	      0.00000000	      0.00000000	      0.00000000	      0.00000000	      0.00000000	      0.95974370	      1.01921760	     -0.48242653	      0.96316599	      1.02199405	     -0.23467942	      0.80275661	      1.07733359	     -0.42086110	      0.80139094	      1.07260135	     -0.30929111	      0.88771423	      0.90005390	     -0.18738966	      0.85689570	      0.74911121	     -0.22067357	      0.92407844	      0.60274578	     -0.23511489	      0.93132390	      0.89193097	     -0.53724969	      0.91034074	      0.73196272	     -0.51134150	      1.00745711	      0.62290615	     -0.51644822	      0.94730336	      0.35235569	     -0.32629458	      0.85877724	      0.33158278	     -0.25750817	      0.84152031	      0.19419375	     -0.35163048	      1.00899554	      0.41614910	     -0.46468591	      0.86931019	      0.42155955	     -0.51338488	      0.82119126	      0.30648015	     -0.46471946	      0.67364823	      0.10229289	     -0.35637259	      0.91524788	      0.07299890	     -0.38484278	      0.86665190	      0.04903540	     -0.28871504	      0.63530230	      0.31820010	     -0.43254137	      0.78130815	      0.13142388	     -0.45689399	      0.71459527	      0.15146887	     -0.54536590	      0.94714131	      1.51035162	     -0.50356266	      0.98820963	      1.46908405	     -0.18325020	      1.03123327	      1.44687589	     -0.31962811	      0.90828018	      1.52408330	     -0.34378724	      0.88963554	      1.36377135	     -0.11570822	      0.93396260	      1.30094865	     -0.10068592	      0.87491945	      1.21631698	     -0.06104683	      0.84631441	      1.15649773	     -0.03623282	      0.84052133	      1.13443437	     -0.12231082	      0.83886999	      1.42033109	     -0.55864813	      0.86319729	      1.34570013	     -0.59545522	      0.78633418	      1.28831236	     -0.61929360	      0.76538038	      1.22473050	     -0.64985932	      0.74641248	      1.20205667	     -0.56406443	      0.93178754	      1.08543715	     -0.04118521	      1.06988575	      1.01804468	     -0.14064127	      1.04284685	      0.97717679	     -0.09164218	      0.80638636	      1.14353434	     -0.64916669	      0.95004088	      1.05121292	     -0.55817899	      0.91808313	      1.00593557	     -0.60297047
      4.22000000	    -10.69787362	     -1.88069996	     -1.30927482	      0.94487367	      0.98281965	     -0.35852474	     21.18058832	      8.04072339	     -0.86857029	    -36.63090467	     23.60108981	     38.23002839	     -2.96134347	      1.07214615	    -80.70032703	      7.93221117	     -4.28548074	      5.10114916	      7.96316420	    -14.20810744	    -17.76715573	     -9.96710937	     88.31900272	    113.36898018	    -26.30723143	    -17.03450347	      1.80122861	     89.34526938	    105.65008262	      0.00000000	      0.00000000	      0.00000000	      0.00000000	      0.00000000	      0.00000000	      0.00000000	      0.00000000	      0.95943654	      1.02270183	     -0.48281710	      0.96293761	      1.02527065	     -0.23488678	      0.80323858	      1.08105389	     -0.42076238	      0.80106378	      1.07610680	     -0.30894678	      0.88498023	      0.90258196	     -0.18768207	      0.84976561	      0.75247017	     -0.22040164	      0.91188775	      0.60427762	     -0.23572161	      0.93216905	      0.89660880	     -0.53786544	      0.91418870	      0.73643277	     -0.51132135	      1.01394605	      0.62949480	     -0.51522965	      0.92917047	      0.35283554	     -0.32749238	      0.84048938	      0.33262670	     -0.25840062	      0.82321381	      0.19527669	     -0.35355723	      1.02147733	      0.42199019	     -0.46415467	      0.88174528	      0.42210874	     -0.51295536	      0.83808759	      0.30498932	     -0.46464473	      0.65398527	      0.10378156	     -0.35634976	      0.89529049	      0.07292344	     -0.38485429	      0.84644321	      0.04921008	     -0.28898332	      0.65112284	      0.30825684	     -0.43387528	      0.80686868	      0.12905103	     -0.45685717	      0.73969787	      0.14581237	     -0.54591237	      0.94483263	      1.51434849	     -0.50352319	      0.98982216	      1.47390032	     -0.18402818	      1.03121394	      1.45076155	     -0.32051763	      0.90777152	      1.52753205	     -0.34366167	      0.89446887	      1.36744426	     -0.11464675	      0.93930223	      1.30516162	     -0.10135986	      0.88239507	      1.21940648	     -0.06169693	      0.85601329	      1.15851263	     -0.03691596	      0.84996321	      1.13695945	     -0.12322042	      0.83434204	      1.42674156	     -0.55713128	      0.85649022	      1.35229736	     -0.59549702	      0.77813853	      1.29682648	     -0.61876789	      0.75497949	      1.23406118	     -0.64897806	      0.73671922	      1.21161383	     -0.56322769	      0.94513957	      1.09209237	     -0.04509049	      1.08369920	      1.03362763	     -0.14903710	      1.06063155	      0.99059636	     -0.09981026	      0.79489642	      1.15270960	     -0.64918368	      0.94016058	      1.06006609	     -0.56181337	      0.90562258	      1.01490803	     -0.60502603
